<svg width="351" height="84" viewBox="0 0 351 84" fill="none" xmlns="http://www.w3.org/2000/svg">
<path d="M17.2188 43.6667V37H23.8854V23.6667H30.5521V37H43.8854V43.6667H30.5521V77H23.8854V43.6667H17.2188ZM30.5521 77H43.8854V83.6667H30.5521V77Z" fill="#E45338"/>
<path d="M57.2188 83.6667V23.6667H63.8854V37H83.8854V43.6667H63.8854V83.6667H57.2188ZM83.8854 83.6667V43.6667H90.5521V83.6667H83.8854Z" fill="#E45338"/>
<path d="M103.859 77V43.6667H110.526V57H130.526V43.6667H137.193V63.6667H110.526V77H103.859ZM110.526 77H130.526V83.6667H110.526V77ZM110.526 43.6667V37H130.526V43.6667H110.526ZM130.526 77V70.3333H137.193V77H130.526Z" fill="#E45338"/>
<path d="M150.5 43.6667V37H157.167V23.6667H163.833V37H177.167V43.6667H163.833V77H157.167V43.6667H150.5ZM163.833 77H177.167V83.6667H163.833V77Z" fill="#E45338"/>
<path d="M190.5 63.6667H197.167V77H190.5V63.6667ZM190.5 43.6667V37H217.167V43.6667H190.5ZM197.167 63.6667V57H217.167V43.6667H223.833V83.6667H197.167V77H217.167V63.6667H197.167Z" fill="#E45338"/>
<path d="M237.141 83.6667V23.6667H243.807V37H263.807V43.6667H243.807V77H263.807V83.6667H237.141ZM263.807 77V43.6667H270.474V77H263.807Z" fill="#E45338"/>
<path d="M283.781 83.6667V77H290.448V30.3333H283.781V23.6667H297.115V77H303.781V83.6667H283.781Z" fill="#E45338"/>
<path d="M317.141 77V43.6667H323.807V57H343.807V43.6667H350.474V63.6667H323.807V77H317.141ZM323.807 77H343.807V83.6667H323.807V77ZM323.807 43.6667V37H343.807V43.6667H323.807ZM343.807 77V70.3333H350.474V77H343.807Z" fill="#E45338"/>
<path d="M0 10V3.75H1.25V10H0ZM5 10V3.75H1.25V2.5H5V0H6.25V11.25H1.25V10H5Z" fill="#E45439"/>
<path d="M8.74512 7.5H9.99512V10H8.74512V7.5ZM8.74512 3.75V2.5H13.7451V3.75H8.74512ZM9.99512 7.5V6.25H13.7451V3.75H14.9951V11.25H9.99512V10H13.7451V7.5H9.99512Z" fill="#E45439"/>
<path d="M17.4902 11.25V10H18.7402V3.75H17.4902V2.5H19.9902V10H21.2402V11.25H17.4902ZM18.7402 1.25V0H19.9902V1.25H18.7402Z" fill="#E45439"/>
<path d="M23.7451 11.25V10H24.9951V1.25H23.7451V0H26.2451V10H27.4951V11.25H23.7451Z" fill="#E45439"/>
<path d="M30 12.5V11.25H32.5V12.5H30ZM30 6.25V2.5H31.25V6.25H30ZM31.25 8.75V6.25H32.5V8.75H31.25ZM32.5 8.75H33.75V11.25H32.5V8.75ZM33.75 8.75V6.25H35V8.75H33.75ZM35 6.25V2.5H36.25V6.25H35Z" fill="#E45439"/>
</svg>
